<?xml version="1.0" encoding="utf-8"?>
<!-- Generator: Adobe Illustrator 25.0.0, SVG Export Plug-In . SVG Version: 6.00 Build 0)  -->
<svg version="1.1" id="Слой_1" xmlns="http://www.w3.org/2000/svg" xmlns:xlink="http://www.w3.org/1999/xlink" x="0px" y="0px"
	 viewBox="0 0 42 42" style="enable-background:new 0 0 42 42;" xml:space="preserve">
<style type="text/css">
	.st0{fill:none;stroke:#6B4795;stroke-width:2;stroke-linecap:round;stroke-miterlimit:10;}
	.st1{fill:none;stroke:#6B4795;stroke-width:1.5;stroke-linecap:round;stroke-linejoin:round;stroke-miterlimit:10;}
	.st2{fill:#6B4795;}
</style>
<g>
	<line class="st0" x1="5.9" y1="19.1" x2="14" y2="19.1"/>
	<line class="st0" x1="3.3" y1="22.5" x2="15.5" y2="22.5"/>
	<line class="st0" x1="7.9" y1="26.5" x2="20.1" y2="26.5"/>
	<path class="st1" d="M27.4,33l-11.9-2.3c-0.6-0.1-1-0.6-1-1.2V16.1l13.7,2.7v13.5C28.3,32.7,27.9,33.1,27.4,33z"/>
	<path class="st1" d="M28.1,18.8l8.8-4.2c0.3-0.1,0.6,0.1,0.6,0.4v8.7"/>
	<path class="st1" d="M37.5,26.5v1.6L28,32.9"/>
	<path class="st1" d="M28.3,18.8l-13.7-2.7l9.3-3.7c0.4-0.1,0.7-0.2,1.1-0.1l12.1,2.3"/>
	<polygon class="st2" points="19.1,14.3 32.6,16.8 32.6,19.8 34.7,19 34.8,15.7 21.7,13.3 	"/>
	<polygon class="st2" points="13.9,8.1 14.7,9.5 16.2,10.3 14.7,11.2 13.9,12.6 13.1,11.2 11.7,10.3 13.1,9.5 	"/>
</g>
</svg>
