<svg width="58" height="10" viewBox="0 0 58 10" fill="none" xmlns="http://www.w3.org/2000/svg">
<path d="M54.8205 7.83023C54.2831 7.83023 53.8203 7.71541 53.432 7.48577C53.0461 7.25377 52.7478 6.92824 52.5371 6.50921C52.3288 6.08781 52.2246 5.5942 52.2246 5.02839C52.2246 4.46967 52.3288 3.97725 52.5371 3.55111C52.7478 3.12498 53.0414 2.79235 53.4178 2.55324C53.7966 2.31413 54.2393 2.19458 54.7459 2.19458C55.0537 2.19458 55.352 2.24548 55.6408 2.34728C55.9296 2.44908 56.1889 2.60888 56.4185 2.82668C56.6481 3.04449 56.8293 3.32739 56.9618 3.6754C57.0944 4.02105 57.1607 4.44127 57.1607 4.93606V5.31248H52.8248V4.51702H56.1202C56.1202 4.23767 56.0634 3.99027 55.9498 3.77484C55.8361 3.55703 55.6763 3.38539 55.4703 3.25992C55.2667 3.13445 55.0276 3.07171 54.753 3.07171C54.4547 3.07171 54.1943 3.1451 53.9718 3.29188C53.7516 3.43629 53.5811 3.62569 53.4604 3.86006C53.342 4.09207 53.2828 4.3442 53.2828 4.61646V5.2379C53.2828 5.60249 53.3468 5.91262 53.4746 6.1683C53.6048 6.42398 53.7859 6.6193 54.0179 6.75424C54.2499 6.88682 54.521 6.9531 54.8311 6.9531C55.0324 6.9531 55.2158 6.92469 55.3816 6.86788C55.5473 6.80869 55.6905 6.7211 55.8113 6.60509C55.932 6.48909 56.0243 6.34586 56.0882 6.1754L57.0932 6.35651C57.0127 6.65244 56.8683 6.91167 56.66 7.13421C56.454 7.35438 56.1948 7.52602 55.8823 7.64913C55.5721 7.76986 55.2182 7.83023 54.8205 7.83023Z" fill="#2B2E31"/>
<path d="M48.4514 7.83023C47.9139 7.83023 47.4511 7.71541 47.0629 7.48577C46.677 7.25377 46.3787 6.92824 46.168 6.50921C45.9596 6.08781 45.8555 5.5942 45.8555 5.02839C45.8555 4.46967 45.9596 3.97725 46.168 3.55111C46.3787 3.12498 46.6722 2.79235 47.0486 2.55324C47.4274 2.31413 47.8701 2.19458 48.3768 2.19458C48.6845 2.19458 48.9828 2.24548 49.2717 2.34728C49.5605 2.44908 49.8197 2.60888 50.0494 2.82668C50.279 3.04449 50.4601 3.32739 50.5927 3.6754C50.7253 4.02105 50.7915 4.44127 50.7915 4.93606V5.31248H46.4556V4.51702H49.7511C49.7511 4.23767 49.6942 3.99027 49.5806 3.77484C49.467 3.55703 49.3072 3.38539 49.1012 3.25992C48.8976 3.13445 48.6585 3.07171 48.3839 3.07171C48.0856 3.07171 47.8252 3.1451 47.6026 3.29188C47.3825 3.43629 47.212 3.62569 47.0913 3.86006C46.9729 4.09207 46.9137 4.3442 46.9137 4.61646V5.2379C46.9137 5.60249 46.9776 5.91262 47.1055 6.1683C47.2357 6.42398 47.4168 6.6193 47.6488 6.75424C47.8808 6.88682 48.1519 6.9531 48.462 6.9531C48.6632 6.9531 48.8467 6.92469 49.0124 6.86788C49.1781 6.80869 49.3214 6.7211 49.4421 6.60509C49.5629 6.48909 49.6552 6.34586 49.7191 6.1754L50.7241 6.35651C50.6436 6.65244 50.4992 6.91167 50.2908 7.13421C50.0849 7.35438 49.8256 7.52602 49.5131 7.64913C49.203 7.76986 48.8491 7.83023 48.4514 7.83023Z" fill="#2B2E31"/>
<path d="M43.4379 4.5348V5.45455H40.4834V4.5348H43.4379ZM40.7817 2.26562V7.72017H39.7412V2.26562H40.7817ZM44.1801 2.26562V7.72017H43.1432V2.26562H44.1801Z" fill="#2B2E31"/>
<path d="M37.4729 0.234375L37.9132 0.90554C37.7499 1.05469 37.564 1.16122 37.3557 1.22514C37.1497 1.28669 36.9118 1.32576 36.6419 1.34233C36.372 1.35653 36.0631 1.36955 35.7151 1.38139C35.3221 1.39323 34.9989 1.47846 34.7456 1.63707C34.4923 1.79332 34.297 2.02533 34.1597 2.3331C34.0247 2.63849 33.9371 3.02202 33.8969 3.48366H33.9644C34.1419 3.14512 34.3881 2.89181 34.703 2.72372C35.0202 2.55563 35.3765 2.47159 35.7719 2.47159C36.2122 2.47159 36.604 2.57221 36.9473 2.77344C37.2906 2.97467 37.5605 3.26941 37.757 3.65767C37.9558 4.04356 38.0553 4.51586 38.0553 5.07457C38.0553 5.64039 37.9511 6.12926 37.7428 6.54119C37.5368 6.95312 37.2456 7.27154 36.8692 7.49645C36.4951 7.71899 36.0536 7.83026 35.5446 7.83026C35.0356 7.83026 34.5917 7.71544 34.2129 7.4858C33.8365 7.25379 33.5441 6.91051 33.3358 6.45597C33.1298 6.00142 33.0269 5.44034 33.0269 4.77273V4.23295C33.0269 2.98532 33.2494 2.04664 33.6945 1.4169C34.1395 0.787169 34.8048 0.464015 35.6902 0.447443C35.9767 0.440341 36.2323 0.439157 36.4573 0.443892C36.6822 0.446259 36.8787 0.435606 37.0467 0.411932C37.2172 0.38589 37.3592 0.326705 37.4729 0.234375ZM35.5482 6.93892C35.8441 6.93892 36.0986 6.86435 36.3117 6.7152C36.5271 6.56368 36.6928 6.34943 36.8088 6.07244C36.9248 5.79545 36.9828 5.46875 36.9828 5.09233C36.9828 4.72301 36.9248 4.40933 36.8088 4.15128C36.6928 3.89323 36.5271 3.69673 36.3117 3.56179C36.0962 3.42448 35.8382 3.35582 35.5375 3.35582C35.315 3.35582 35.1161 3.39489 34.9409 3.47301C34.7657 3.54877 34.6154 3.66122 34.4899 3.81037C34.3668 3.95952 34.2709 4.14181 34.2023 4.35724C34.136 4.57031 34.1005 4.81534 34.0957 5.09233C34.0957 5.65578 34.2248 6.1044 34.4828 6.43821C34.7432 6.77202 35.0984 6.93892 35.5482 6.93892Z" fill="#2B2E31"/>
<path d="M29.0368 7.83023C28.5254 7.83023 28.0791 7.71305 27.698 7.47867C27.3168 7.2443 27.0209 6.91641 26.8102 6.49501C26.5995 6.0736 26.4941 5.58118 26.4941 5.01773C26.4941 4.45192 26.5995 3.95713 26.8102 3.53336C27.0209 3.10959 27.3168 2.78052 27.698 2.54614C28.0791 2.31177 28.5254 2.19458 29.0368 2.19458C29.5481 2.19458 29.9944 2.31177 30.3755 2.54614C30.7567 2.78052 31.0526 3.10959 31.2633 3.53336C31.474 3.95713 31.5794 4.45192 31.5794 5.01773C31.5794 5.58118 31.474 6.0736 31.2633 6.49501C31.0526 6.91641 30.7567 7.2443 30.3755 7.47867C29.9944 7.71305 29.5481 7.83023 29.0368 7.83023ZM29.0403 6.9389C29.3717 6.9389 29.6464 6.8513 29.8642 6.67611C30.082 6.50092 30.243 6.26773 30.3471 5.97654C30.4537 5.68535 30.5069 5.36456 30.5069 5.01418C30.5069 4.66617 30.4537 4.34657 30.3471 4.05538C30.243 3.76181 30.082 3.52626 29.8642 3.3487C29.6464 3.17114 29.3717 3.08236 29.0403 3.08236C28.7065 3.08236 28.4295 3.17114 28.2093 3.3487C27.9915 3.52626 27.8294 3.76181 27.7228 4.05538C27.6187 4.34657 27.5666 4.66617 27.5666 5.01418C27.5666 5.36456 27.6187 5.68535 27.7228 5.97654C27.8294 6.26773 27.9915 6.50092 28.2093 6.67611C28.4295 6.8513 28.7065 6.9389 29.0403 6.9389Z" fill="#2B2E31"/>
<path d="M20.0674 9.7656V2.2656H21.1043V3.14984H21.1931C21.2546 3.0362 21.3434 2.90481 21.4594 2.75566C21.5754 2.60651 21.7364 2.4763 21.9424 2.36503C22.1483 2.2514 22.4206 2.19458 22.7591 2.19458C23.1995 2.19458 23.5925 2.30585 23.9381 2.52839C24.2838 2.75092 24.5548 3.07171 24.7513 3.49074C24.9502 3.90978 25.0496 4.41404 25.0496 5.00353C25.0496 5.59302 24.9514 6.09846 24.7549 6.51986C24.5584 6.9389 24.2885 7.26205 23.9452 7.48932C23.6019 7.71423 23.2101 7.82668 22.7698 7.82668C22.4384 7.82668 22.1673 7.77105 21.9566 7.65978C21.7483 7.54851 21.5849 7.4183 21.4665 7.26915C21.3482 7.12001 21.257 6.98743 21.1931 6.87143H21.1292V9.7656H20.0674ZM21.1079 4.99288C21.1079 5.3764 21.1635 5.71257 21.2748 6.0014C21.386 6.29022 21.547 6.51631 21.7577 6.67967C21.9684 6.84065 22.2265 6.92114 22.5319 6.92114C22.8491 6.92114 23.1143 6.8371 23.3273 6.66901C23.5404 6.49856 23.7014 6.26773 23.8103 5.97654C23.9216 5.68535 23.9772 5.35746 23.9772 4.99288C23.9772 4.63303 23.9227 4.30987 23.8138 4.02342C23.7073 3.73696 23.5463 3.51087 23.3309 3.34515C23.1178 3.17943 22.8515 3.09657 22.5319 3.09657C22.2241 3.09657 21.9637 3.17588 21.7506 3.33449C21.5399 3.49311 21.3801 3.71447 21.2712 3.99856C21.1623 4.28265 21.1079 4.61409 21.1079 4.99288Z" fill="#2B2E31"/>
<path d="M12.6382 9.29332V6.80043H13.0821C13.1957 6.69626 13.2916 6.57197 13.3697 6.42756C13.4502 6.28314 13.5177 6.11151 13.5721 5.91264C13.629 5.71378 13.6763 5.48177 13.7142 5.21662C13.7521 4.9491 13.7852 4.6437 13.8136 4.30043L13.9841 2.26562H17.6915V6.80043H18.5295V9.29332H17.4926V7.72017H13.6893V9.29332H12.6382ZM14.2184 6.80043H16.6545V3.17472H14.9358L14.8221 4.30043C14.7677 4.87334 14.699 5.3705 14.6162 5.7919C14.5333 6.21094 14.4007 6.54711 14.2184 6.80043Z" fill="#2B2E31"/>
<path d="M8.943 7.83023C8.43164 7.83023 7.98538 7.71305 7.60423 7.47867C7.22307 7.2443 6.92714 6.91641 6.71644 6.49501C6.50574 6.0736 6.40039 5.58118 6.40039 5.01773C6.40039 4.45192 6.50574 3.95713 6.71644 3.53336C6.92714 3.10959 7.22307 2.78052 7.60423 2.54614C7.98538 2.31177 8.43164 2.19458 8.943 2.19458C9.45437 2.19458 9.90063 2.31177 10.2818 2.54614C10.6629 2.78052 10.9589 3.10959 11.1696 3.53336C11.3803 3.95713 11.4856 4.45192 11.4856 5.01773C11.4856 5.58118 11.3803 6.0736 11.1696 6.49501C10.9589 6.91641 10.6629 7.2443 10.2818 7.47867C9.90063 7.71305 9.45437 7.83023 8.943 7.83023ZM8.94656 6.9389C9.278 6.9389 9.55262 6.8513 9.77042 6.67611C9.98822 6.50092 10.1492 6.26773 10.2534 5.97654C10.3599 5.68535 10.4132 5.36456 10.4132 5.01418C10.4132 4.66617 10.3599 4.34657 10.2534 4.05538C10.1492 3.76181 9.98822 3.52626 9.77042 3.3487C9.55262 3.17114 9.278 3.08236 8.94656 3.08236C8.61275 3.08236 8.33576 3.17114 8.11559 3.3487C7.89779 3.52626 7.73562 3.76181 7.62908 4.05538C7.52492 4.34657 7.47283 4.66617 7.47283 5.01418C7.47283 5.36456 7.52492 5.68535 7.62908 5.97654C7.73562 6.26773 7.89779 6.50092 8.11559 6.67611C8.33576 6.8513 8.61275 6.9389 8.94656 6.9389Z" fill="#2B2E31"/>
<path d="M0.276367 7.72017V2.26562H4.72594V7.72017H3.68546V3.18182H1.30975V7.72017H0.276367Z" fill="#2B2E31"/>
</svg>
