<svg width="317" height="317" viewBox="0 0 317 317" fill="none" xmlns="http://www.w3.org/2000/svg">
<rect width="317" height="317" fill="white"/>
<g clip-path="url(#clip0_1478_180)">
<path d="M104.838 154.196L270.236 143.649L205.253 129.732L45.7354 138.375L104.838 154.196Z" stroke="#6B4795" stroke-width="2" stroke-miterlimit="10" stroke-linejoin="round"/>
<path d="M104.838 272.267L270.089 254.835L271.265 143.649L104.838 154.196V272.267Z" stroke="#6B4795" stroke-width="2" stroke-miterlimit="10" stroke-linejoin="round"/>
<path d="M170.881 211.432C169.705 211.432 168.676 211.286 167.499 210.846C166.47 210.407 165.588 209.967 165 209.381L165.882 208.063C166.323 208.649 167.058 209.088 167.94 209.381C168.823 209.674 169.852 209.967 170.881 209.967C172.204 209.967 173.38 209.674 173.968 209.088C174.703 208.502 174.997 207.624 174.997 206.745C174.997 206.012 174.85 205.426 174.556 204.987C174.262 204.547 173.674 204.108 172.939 203.815C172.204 203.522 171.028 203.375 169.705 203.375H166.176L167.058 195.318H175.88V196.783H167.646L168.528 195.904L167.793 202.643L166.911 201.764H169.999C171.616 201.764 172.939 201.91 173.968 202.35C174.997 202.789 175.733 203.375 176.174 203.961C176.615 204.694 176.909 205.573 176.909 206.452C176.909 207.331 176.762 208.21 176.321 208.942C175.88 209.674 175.291 210.26 174.409 210.7C173.233 211.139 172.204 211.432 170.881 211.432Z" fill="#6B4795"/>
<path d="M186.024 211.286V194H187.642V211.139H186.024V211.286ZM187.348 208.063V206.012L194.993 199.127H197.051L191.758 204.254L190.876 204.987L187.348 208.063ZM195.581 211.286L190.435 204.987L191.464 203.668L197.492 211.286H195.581Z" fill="#6B4795"/>
<path d="M204.402 210.846C203.226 210.846 202.197 210.553 201.314 210.114C200.432 209.675 199.697 208.942 199.109 208.063C198.521 207.184 198.374 206.159 198.374 204.987C198.374 203.815 198.668 202.789 199.109 201.911C199.55 201.032 200.432 200.299 201.314 199.86C202.197 199.42 203.226 199.127 204.402 199.127C205.431 199.127 206.46 199.42 207.342 199.86C208.224 200.299 208.96 201.032 209.401 201.911C209.842 202.789 210.136 203.815 210.136 205.133C210.136 206.452 209.842 207.477 209.401 208.356C208.96 209.235 208.224 209.967 207.342 210.407C206.46 210.846 205.578 210.846 204.402 210.846ZM204.696 215.827C203.52 215.827 202.491 215.681 201.461 215.388C200.432 215.095 199.55 214.655 198.962 214.069L199.844 212.751C200.432 213.19 201.167 213.63 201.903 213.923C202.785 214.216 203.667 214.362 204.549 214.362C206.166 214.362 207.195 214.069 207.93 213.337C208.665 212.604 208.96 211.432 208.96 209.967V206.891L209.254 204.84L209.107 202.789V199.127H210.724V209.821C210.724 211.872 210.283 213.483 209.254 214.509C208.224 215.388 206.754 215.827 204.696 215.827ZM204.549 209.382C205.431 209.382 206.313 209.235 206.901 208.796C207.636 208.356 208.077 207.917 208.518 207.184C208.96 206.452 209.107 205.719 209.107 204.84C209.107 203.961 208.96 203.229 208.518 202.496C208.077 201.764 207.636 201.325 206.901 200.885C206.166 200.446 205.431 200.299 204.549 200.299C203.667 200.299 202.932 200.446 202.197 200.885C201.461 201.325 200.873 201.764 200.579 202.496C200.138 203.229 199.991 203.961 199.991 204.84C199.991 205.719 200.138 206.452 200.579 207.184C201.02 207.917 201.461 208.356 202.197 208.796C202.932 209.089 203.667 209.382 204.549 209.382Z" fill="#6B4795"/>
<path d="M45.7354 138.375V244.434L104.838 272.267V154.196L45.7354 138.375Z" stroke="#6B4795" stroke-width="2" stroke-miterlimit="10" stroke-linejoin="round"/>
</g>
<defs>
<clipPath id="clip0_1478_180">
<rect width="227" height="144" fill="white" transform="translate(45 129)"/>
</clipPath>
</defs>
</svg>
